<?xml version="1.0" standalone="no"?>
<!DOCTYPE svg PUBLIC "-//W3C//DTD SVG 20010904//EN"
 "http://www.w3.org/TR/2001/REC-SVG-20010904/DTD/svg10.dtd">
<svg version="1.0" xmlns="http://www.w3.org/2000/svg"
 width="571.000000pt" height="1280.000000pt" viewBox="0 0 571.000000 1280.000000"
 preserveAspectRatio="xMidYMid meet">
<metadata>
Created by potrace 1.15, written by Peter Selinger 2001-2017
</metadata>
<g transform="translate(0.000000,1280.000000) scale(0.100000,-0.100000)"
fill="#ffffff" stroke="none">
<path d="M3340 12784 c-25 -8 -61 -16 -81 -18 -21 -2 -47 -11 -60 -20 -13 -9
-28 -16 -34 -16 -30 0 -200 -222 -237 -310 -11 -25 -35 -76 -53 -115 -43 -91
-95 -291 -95 -367 0 -43 -5 -68 -19 -86 -31 -44 -50 -128 -52 -223 l-1 -89 66
-65 c37 -36 71 -65 76 -65 31 0 94 -232 105 -387 l7 -100 -29 -21 c-15 -11
-71 -37 -123 -57 -114 -44 -354 -161 -369 -179 -12 -14 -1 -59 17 -70 13 -8
25 -72 17 -95 -6 -20 -78 -68 -135 -91 -19 -8 -60 -27 -90 -42 -30 -15 -58
-28 -62 -28 -4 0 -28 -16 -53 -35 -25 -19 -62 -42 -81 -51 -19 -9 -84 -61
-144 -114 l-108 -98 -49 10 c-33 6 -61 5 -91 -3 -54 -15 -127 -7 -153 17 -23
21 -69 21 -167 -2 -35 -8 -73 -14 -86 -14 -41 0 -56 -21 -47 -61 l8 -37 -66
-1 c-111 -2 -265 -50 -410 -127 -99 -52 -225 -164 -300 -267 -70 -96 -161
-299 -161 -359 0 -31 -17 -151 -26 -176 -3 -10 -12 -7 -35 12 -32 28 -76 27
-92 -1 -4 -7 -14 -13 -20 -13 -9 0 -12 -31 -11 -121 1 -66 -2 -151 -7 -189
-10 -73 -52 -225 -68 -244 -18 -23 -23 -188 -7 -251 15 -55 24 -67 139 -185
68 -69 134 -140 146 -157 31 -45 94 -79 171 -93 36 -7 93 -21 127 -32 41 -12
75 -17 95 -13 18 4 110 12 203 18 177 12 187 15 271 72 25 17 51 25 79 25 76
0 148 19 176 46 24 23 39 27 132 34 111 9 166 18 342 52 61 12 119 19 128 15
13 -5 17 -18 17 -52 0 -25 7 -60 16 -77 13 -26 14 -41 6 -87 -6 -31 -14 -207
-18 -391 -4 -204 -12 -378 -21 -445 -14 -100 -17 -177 -12 -267 3 -43 -13
-133 -40 -228 -12 -41 -28 -110 -36 -153 -16 -82 -51 -211 -64 -237 -5 -9 -12
-67 -16 -130 -3 -63 -15 -160 -26 -215 -28 -144 -41 -262 -44 -405 -1 -69 -7
-145 -13 -170 -7 -25 -12 -70 -12 -101 0 -42 -7 -71 -30 -115 -16 -32 -30 -67
-30 -76 0 -10 14 -33 31 -52 l30 -35 -26 -68 c-15 -37 -33 -86 -42 -108 -8
-22 -18 -44 -23 -50 -5 -5 -4 -30 1 -55 6 -25 13 -70 16 -100 4 -47 2 -58 -16
-74 -12 -11 -21 -28 -21 -38 0 -11 -5 -29 -12 -41 -6 -12 -15 -53 -20 -92 -5
-38 -13 -101 -18 -140 -4 -38 -11 -117 -15 -175 -3 -58 -10 -116 -15 -130 -5
-14 -11 -42 -15 -64 -3 -21 -13 -53 -21 -72 -8 -19 -21 -50 -30 -70 -10 -26
-12 -40 -5 -47 14 -14 14 -74 0 -82 -5 -4 -8 -19 -5 -33 3 -15 -1 -52 -10 -82
-9 -30 -16 -84 -16 -119 0 -41 -7 -78 -19 -105 -10 -22 -19 -60 -19 -84 0 -25
-10 -63 -25 -92 -14 -27 -25 -59 -25 -70 0 -11 -9 -38 -20 -60 -11 -22 -20
-46 -20 -55 0 -9 -13 -42 -30 -75 -36 -72 -37 -86 -6 -119 13 -15 26 -33 27
-41 6 -31 -13 -204 -28 -253 -17 -59 -12 -137 12 -173 17 -27 20 -77 5 -105
-6 -11 -15 -58 -21 -105 -9 -84 -25 -131 -57 -167 -8 -9 -13 -20 -9 -23 3 -3
2 -17 -4 -31 -8 -21 -3 -30 35 -71 l44 -47 -8 -74 c-4 -41 -5 -84 -1 -95 5
-12 8 -45 9 -75 1 -34 7 -60 17 -71 15 -16 14 -20 -6 -54 -30 -52 -30 -108 1
-141 l24 -25 -31 -33 c-25 -25 -30 -38 -26 -59 4 -19 12 -28 25 -28 25 0 18
-26 -29 -100 -119 -188 -138 -227 -146 -285 -3 -22 -15 -65 -27 -95 -12 -30
-26 -69 -31 -87 -10 -34 -8 -141 4 -159 8 -14 89 -30 239 -49 244 -31 621 35
713 125 44 43 61 124 44 210 -11 59 -11 62 14 88 35 37 57 105 57 182 0 37 7
76 15 90 8 14 14 39 15 56 0 19 12 46 30 69 17 21 30 41 31 44 0 3 3 32 5 64
4 42 15 74 41 119 19 33 42 87 49 119 8 33 24 79 36 102 29 56 37 109 48 327
10 190 22 273 46 300 7 9 19 46 26 82 9 49 17 68 30 71 14 4 18 16 18 59 0 67
25 255 45 339 8 35 15 79 15 97 0 33 16 122 45 257 8 39 19 117 24 175 7 76
16 120 34 160 29 63 67 237 67 306 0 52 18 168 30 199 5 11 11 49 13 85 3 37
16 92 31 127 14 35 26 76 26 92 0 16 9 50 20 76 11 26 20 52 20 59 0 7 24 49
53 94 86 133 97 153 97 173 0 11 11 41 24 68 35 67 66 164 66 203 0 46 26 126
54 169 25 37 43 106 56 219 5 36 18 101 29 145 12 44 24 104 27 135 8 82 25
153 35 143 5 -5 16 -53 24 -108 26 -164 55 -306 75 -376 11 -37 26 -109 34
-160 45 -294 63 -373 129 -544 36 -93 68 -186 72 -205 3 -19 14 -50 22 -69 9
-19 26 -91 38 -160 15 -88 30 -140 48 -172 44 -76 58 -129 67 -254 5 -66 15
-198 24 -293 8 -96 12 -180 10 -187 -3 -8 10 -35 30 -61 20 -26 36 -50 36 -53
0 -3 3 -40 5 -81 7 -97 7 -208 -1 -290 -5 -59 -3 -71 27 -130 26 -53 32 -79
35 -145 3 -63 8 -83 23 -95 16 -13 18 -23 11 -75 -4 -33 -4 -64 0 -70 13 -17
21 -76 24 -172 2 -87 4 -95 34 -132 40 -49 82 -160 82 -215 0 -46 35 -196 55
-236 7 -14 15 -85 19 -159 4 -74 12 -148 19 -165 8 -20 10 -49 6 -81 -8 -55
-1 -122 12 -131 5 -3 9 -14 9 -26 0 -12 8 -22 23 -26 12 -3 65 -27 117 -54
l95 -49 9 23 c6 13 11 25 12 26 2 2 16 -11 33 -30 31 -34 39 -50 62 -128 42
-137 113 -187 301 -210 38 -5 72 -12 78 -15 17 -10 490 25 552 41 32 8 69 12
83 8 25 -6 25 -6 25 59 0 36 -5 78 -11 94 -6 15 -19 60 -29 98 -28 108 -69
176 -186 313 -98 114 -172 212 -203 270 -8 15 -7 30 3 60 13 35 13 48 0 97
-12 44 -13 68 -4 112 5 31 10 89 10 128 0 60 -4 75 -20 90 -16 15 -20 30 -19
74 2 73 -10 142 -29 163 -10 13 -13 30 -9 60 6 48 -14 183 -34 219 -7 14 -13
62 -14 114 0 50 -6 115 -12 145 -31 148 -36 200 -25 251 23 97 13 244 -19 299
-26 43 -37 107 -49 275 -6 88 -16 177 -22 197 -8 27 -8 49 0 80 14 50 17 192
8 363 -3 66 -7 192 -9 280 l-4 160 42 45 c48 52 59 84 40 114 -12 19 -66 248
-81 341 -3 22 -1 75 5 119 10 72 10 81 -9 111 -11 18 -20 45 -20 61 0 16 -9
49 -20 73 -11 24 -30 92 -41 150 -11 58 -24 126 -30 150 -5 24 -9 89 -9 145 1
101 -6 154 -35 256 -8 30 -18 72 -22 93 -3 21 -10 40 -14 43 -5 3 -9 15 -9 28
0 12 -5 27 -11 33 -5 5 -16 50 -24 99 -19 126 -25 146 -48 171 -17 19 -19 31
-13 83 3 33 9 87 12 120 6 53 4 64 -18 98 -35 52 -38 65 -48 204 -6 68 -14
150 -20 183 -5 33 -14 134 -20 225 -9 155 -16 197 -81 490 -5 25 -18 61 -27
80 -24 50 -10 98 33 106 74 14 95 66 95 237 0 92 -5 136 -21 189 -18 60 -20
92 -18 227 2 104 -1 171 -9 201 -10 35 -11 55 -1 95 10 42 25 64 95 138 46 48
100 115 120 150 20 34 54 81 75 104 21 23 41 54 44 70 11 50 39 94 93 150 28
30 52 61 52 69 0 8 20 36 45 63 25 26 48 61 51 77 3 17 -4 65 -15 111 -23 89
-26 156 -11 218 6 22 10 128 10 235 l1 195 -37 105 c-19 58 -48 121 -63 140
-15 19 -36 51 -46 70 -19 39 -123 150 -140 150 -6 0 -26 10 -45 23 -50 33
-170 64 -280 72 -70 6 -107 14 -142 31 -26 13 -63 24 -81 24 -52 0 -93 61 -52
76 31 12 7 104 -27 104 -12 0 -24 12 -33 34 -14 32 -19 35 -70 41 -30 4 -67 5
-82 2 -16 -3 -62 -13 -103 -22 -41 -9 -93 -14 -115 -13 -40 3 -40 3 -43 49 -5
71 10 97 63 110 51 13 60 26 106 158 25 68 47 180 49 237 0 7 -15 15 -34 18
l-33 6 1 143 c1 109 -3 160 -18 217 -24 95 -67 244 -99 340 -14 41 -30 93 -36
116 -6 22 -21 56 -33 74 -36 53 -122 118 -165 125 -21 3 -76 12 -123 20 -100
18 -93 18 -150 -1z"/>
</g>
</svg>
