<?xml version="1.0" standalone="no"?>
<!DOCTYPE svg PUBLIC "-//W3C//DTD SVG 20010904//EN"
 "http://www.w3.org/TR/2001/REC-SVG-20010904/DTD/svg10.dtd">
<svg version="1.0" xmlns="http://www.w3.org/2000/svg"
 width="742.000000pt" height="1280.000000pt" viewBox="0 0 742.000000 1280.000000"
 preserveAspectRatio="xMidYMid meet">
<metadata>
Created by potrace 1.15, written by Peter Selinger 2001-2017
</metadata>
<g transform="translate(0.000000,1280.000000) scale(0.100000,-0.100000)"
fill="#ffffff" stroke="none">
<path d="M3530 12794 c-377 -43 -605 -106 -885 -244 -459 -226 -806 -556
-1059 -1006 -55 -98 -57 -99 -118 -125 -70 -30 -91 -57 -82 -104 l6 -30 -29
28 c-16 15 -39 27 -52 27 -12 0 -74 -28 -138 -61 l-115 -62 4 -41 c3 -22 8
-50 13 -61 5 -11 -6 -4 -27 18 -19 20 -44 37 -54 37 -30 0 -233 -136 -246
-165 -9 -21 -8 -32 6 -61 l16 -36 -29 21 c-59 42 -73 35 -234 -117 -64 -61
-67 -76 -25 -135 l21 -29 -43 22 c-25 13 -51 19 -64 16 -20 -6 -162 -195 -178
-238 -9 -23 6 -56 36 -80 20 -16 20 -17 -20 -11 -23 3 -50 0 -61 -5 -25 -14
-116 -248 -111 -288 2 -19 14 -36 37 -51 l34 -23 -31 0 c-18 0 -41 -9 -55 -22
-23 -21 -26 -35 -37 -157 -10 -127 -10 -136 8 -160 11 -14 32 -28 48 -31 l29
-6 -40 -19 -40 -20 0 -65 c1 -36 7 -104 14 -153 15 -97 24 -108 91 -111 21 0
36 -4 33 -8 -2 -5 -10 -8 -17 -8 -7 0 -25 -14 -41 -30 l-29 -31 43 -130 c50
-151 62 -165 132 -150 39 9 42 8 24 -5 -43 -30 -65 -57 -65 -78 0 -11 26 -73
58 -136 l57 -115 47 1 47 0 -25 -29 c-13 -16 -24 -38 -23 -50 0 -12 30 -71 67
-132 65 -107 68 -110 102 -109 19 0 44 4 55 8 18 7 18 6 2 -4 -9 -6 -24 -25
-33 -41 -15 -30 -14 -33 16 -82 17 -29 54 -83 82 -120 46 -64 52 -69 81 -65
18 3 41 9 52 13 17 8 15 3 -7 -24 -16 -18 -28 -40 -28 -49 0 -24 148 -212 173
-221 21 -8 20 -9 -8 -24 -110 -56 -267 -270 -310 -421 -29 -101 -4 -190 88
-312 l46 -60 -10 -70 c-83 -602 -115 -795 -204 -1229 -97 -471 -99 -494 -99
-805 0 -304 13 -436 80 -804 64 -350 108 -482 186 -558 28 -28 48 -56 48 -69
0 -36 79 -204 115 -247 76 -88 208 -144 341 -145 71 0 91 4 148 31 87 41 181
133 192 186 14 77 -26 108 -115 86 -43 -10 -55 -9 -93 8 -39 17 -98 72 -98 91
0 4 9 16 20 26 15 14 31 17 74 13 47 -4 61 -10 99 -45 56 -52 92 -60 150 -35
35 16 47 28 61 63 19 47 16 106 -10 167 -10 24 -11 40 -3 60 40 105 116 512
149 803 25 216 27 516 5 686 -12 91 -99 549 -141 743 l-5 25 18 -25 c166 -228
293 -405 348 -487 l68 -103 -42 -46 c-81 -87 -111 -189 -111 -377 0 -186 24
-327 101 -584 21 -72 39 -143 39 -157 0 -46 -60 -317 -165 -741 -119 -481
-148 -619 -175 -833 -45 -347 -12 -1062 65 -1437 13 -66 25 -123 25 -127 0 -3
-19 -16 -42 -27 -88 -42 -222 -176 -265 -263 -18 -35 -22 -61 -22 -143 0 -122
19 -168 106 -265 78 -86 159 -144 240 -171 68 -23 72 -23 663 -24 327 -1 620
2 650 7 30 4 88 24 129 44 93 46 215 165 259 253 28 56 30 67 28 159 -2 81 -7
108 -26 148 -32 66 -179 212 -251 249 l-56 28 14 56 c75 318 103 720 103 1496
0 457 -8 635 -40 855 -5 36 -10 67 -10 70 0 3 194 5 430 5 237 0 430 -2 430
-5 0 -3 -5 -34 -10 -70 -32 -220 -40 -398 -40 -855 0 -777 28 -1178 103 -1496
l14 -56 -54 -27 c-68 -33 -198 -157 -243 -232 -33 -55 -34 -62 -37 -162 -2
-124 8 -153 92 -255 93 -113 215 -189 327 -206 29 -4 323 -7 653 -6 575 2 602
3 656 23 83 30 135 66 220 153 106 107 128 156 127 279 0 132 -20 176 -141
294 -52 52 -113 101 -139 114 -27 13 -48 26 -48 30 0 4 12 61 25 127 77 375
110 1090 65 1437 -27 214 -56 352 -175 833 -57 231 -118 489 -135 574 l-32
153 26 82 c158 501 157 907 -4 1061 -16 16 -30 33 -30 37 0 5 19 37 42 71 56
83 382 536 384 534 1 -1 -20 -110 -47 -242 -105 -505 -126 -702 -109 -989 18
-300 98 -798 159 -995 15 -47 15 -61 5 -86 -24 -57 -27 -118 -8 -164 14 -35
26 -47 61 -63 58 -25 94 -17 150 35 38 35 52 41 99 45 43 4 59 1 74 -13 11
-10 20 -22 20 -26 0 -19 -59 -74 -98 -91 -38 -17 -50 -18 -93 -8 -89 22 -129
-9 -115 -86 11 -53 105 -145 192 -186 57 -27 77 -31 148 -31 133 1 265 57 341
145 38 46 115 212 115 251 0 15 7 32 16 39 96 76 144 199 208 533 71 367 101
675 93 940 -6 211 -23 329 -106 735 -87 423 -141 743 -186 1100 -9 69 -18 139
-21 155 -4 25 3 41 42 90 105 134 124 237 67 370 -55 131 -175 289 -264 347
-43 28 -47 33 -31 39 25 9 172 198 172 221 0 9 -12 31 -27 49 -23 27 -25 32
-8 24 11 -4 34 -10 52 -13 29 -4 35 1 81 65 28 37 65 91 82 120 30 49 31 52
16 82 -9 16 -24 35 -33 41 -16 10 -16 11 2 4 11 -4 36 -8 55 -8 34 -1 37 2
102 109 37 61 67 120 67 132 1 12 -10 34 -23 50 l-25 29 47 0 47 -1 57 115
c32 63 58 125 58 136 0 21 -22 48 -65 78 -18 13 -15 14 24 5 70 -15 82 -1 132
150 l43 130 -29 31 c-16 16 -34 30 -41 30 -7 0 -15 3 -17 8 -3 4 12 8 33 8 67
3 76 14 91 111 7 49 13 117 14 153 l0 65 -40 20 -40 19 29 6 c16 3 37 17 48
31 18 24 18 33 8 160 -11 122 -14 136 -37 157 -14 13 -37 22 -55 22 l-31 0 34
23 c23 15 35 32 37 51 5 40 -86 274 -111 288 -11 5 -38 8 -61 5 -40 -6 -40 -5
-20 11 30 24 45 57 36 80 -16 43 -158 232 -178 238 -13 3 -39 -3 -64 -16 l-43
-22 21 29 c42 59 39 74 -25 135 -161 152 -175 159 -234 117 l-29 -21 16 36
c14 29 15 40 6 61 -13 29 -216 165 -246 165 -10 0 -35 -17 -54 -37 -21 -22
-32 -29 -27 -18 5 11 10 39 13 61 l4 41 -115 62 c-64 33 -126 61 -138 61 -13
0 -36 -12 -52 -27 l-29 -28 6 30 c9 47 -12 74 -82 104 -61 26 -63 27 -118 125
-253 450 -600 780 -1059 1006 -233 115 -447 182 -722 225 -93 15 -448 28 -523
19z m-2230 -1954 c36 19 37 34 -6 -215 -34 -202 -36 -225 -24 -293 6 -37 20
-134 30 -217 22 -180 31 -226 70 -372 169 -632 589 -1166 1176 -1493 70 -39
129 -81 175 -125 l69 -66 -35 -69 c-41 -81 -85 -208 -85 -243 l0 -24 -137 -6
c-98 -3 -159 -11 -211 -26 -56 -16 -88 -20 -135 -15 -34 3 -145 -1 -247 -10
-101 -9 -245 -16 -320 -15 l-135 0 -79 100 c-81 101 -108 120 -144 100 -31
-16 -35 -13 -18 11 9 12 16 33 16 46 0 30 -137 211 -165 218 -12 3 -33 0 -48
-5 l-27 -11 22 40 23 39 -71 103 -71 103 -51 0 -50 -1 24 29 c13 16 24 35 24
44 0 25 -120 222 -139 228 -10 3 -31 1 -46 -5 -15 -6 -30 -8 -33 -6 -3 3 3 8
12 12 9 4 24 20 32 36 15 28 13 33 -39 143 -57 117 -73 133 -120 120 -20 -6
-20 -5 6 19 15 15 27 37 26 49 0 12 -17 69 -37 127 l-37 105 -39 3 -39 3 31
20 c24 14 32 26 32 46 -1 52 -29 214 -40 228 -6 7 -25 16 -43 20 l-32 7 31 9
c17 5 36 15 42 21 5 7 15 62 22 123 12 120 14 115 -46 151 -16 10 -14 12 20
12 21 0 41 4 46 9 10 11 80 195 80 211 0 8 -13 26 -29 41 l-30 28 39 -10 c49
-13 56 -7 135 107 l57 83 -17 33 c-13 25 -14 32 -4 28 59 -22 71 -16 187 94
56 53 60 68 36 123 -7 18 -6 18 20 -3 16 -12 37 -22 48 -22 18 0 195 112 211
134 4 6 6 25 3 43 l-4 31 33 -19 c28 -17 38 -18 55 -9z m4904 -2 c-3 -18 -1
-38 3 -44 16 -22 193 -134 211 -134 11 0 32 10 48 22 26 21 27 21 20 3 -24
-55 -20 -70 36 -123 75 -72 130 -113 142 -109 6 2 21 8 34 12 23 7 23 7 7 -25
l-17 -33 57 -83 c79 -114 86 -120 135 -107 l39 10 -30 -28 c-16 -15 -29 -33
-29 -41 0 -16 70 -200 80 -211 5 -5 25 -9 46 -9 34 0 36 -2 20 -12 -60 -36
-58 -31 -46 -151 7 -61 17 -116 22 -123 6 -6 25 -16 42 -21 l31 -9 -32 -7
c-18 -4 -37 -13 -43 -20 -11 -14 -39 -176 -40 -228 0 -20 8 -32 32 -46 l31
-20 -39 -3 -39 -3 -37 -105 c-20 -58 -37 -115 -37 -127 -1 -12 11 -34 27 -49
25 -24 25 -25 5 -19 -47 13 -63 -3 -120 -120 -52 -110 -54 -115 -39 -143 8
-16 23 -32 32 -36 9 -4 15 -9 12 -12 -3 -2 -18 0 -33 6 -15 6 -36 8 -46 5 -19
-6 -139 -203 -139 -228 0 -9 11 -28 24 -44 l24 -29 -50 1 -51 0 -71 -103 -71
-103 23 -39 22 -40 -27 11 c-15 5 -36 8 -48 5 -28 -7 -165 -188 -165 -218 0
-13 7 -34 16 -46 17 -24 13 -27 -18 -11 -36 20 -63 1 -144 -100 l-79 -100
-135 0 c-75 -1 -217 6 -316 14 -99 9 -218 14 -265 13 -58 -1 -101 3 -139 16
-36 11 -102 19 -190 23 l-136 6 -16 72 c-9 40 -37 115 -61 168 l-45 97 68 66
c45 43 104 86 174 124 587 327 1007 861 1176 1493 38 145 47 191 71 372 10 83
24 181 29 218 11 69 9 94 -24 292 -34 198 -37 218 -32 222 2 3 14 -1 26 -7 17
-9 27 -8 53 9 18 10 33 20 34 20 1 1 0 -14 -3 -31z"/>
</g>
</svg>
